<svg xmlns="http://www.w3.org/2000/svg"><style>:root svg:not(:target){display:none}</style><svg fill="none" id="logo-mail" viewBox="0 0 40 40"><circle cx="20" cy="20" r="20" fill="#FAA727"></circle><g clip-path="url(#logo-mail_0)"><path d="M20 12.5c-4.14 0-7.5 3.36-7.5 7.5 0 4.14 3.36 7.5 7.5 7.5.691 0 1.25.559 1.25 1.25S20.691 30 20 30c-5.523 0-10-4.477-10-10s4.477-10 10-10 10 4.477 10 10v1.25a3.751 3.751 0 0 1-6.61 2.426 5 5 0 1 1-.473-7.734 1.249 1.249 0 0 1 2.082.934V21.249c.001.691.56 1.25 1.251 1.25.691 0 1.25-.559 1.25-1.25V20c0-4.14-3.36-7.5-7.5-7.5Zm2.5 7.5a2.5 2.5 0 1 0-5 0 2.5 2.5 0 0 0 5 0Z" fill="#fff"></path></g><defs><clipPath id="logo-mail_0"><path fill="#fff" transform="translate(10 10)" d="M0 0h20v20H0z"></path></clipPath></defs></svg><svg fill="none" id="logo-telegram" viewBox="0 0 40 40"><g clip-path="url(#logo-telegram_0)"><rect width="40" height="40" rx="20" fill="#fff"></rect><path d="M20 0C8.954 0 0 8.954 0 20s8.954 20 20 20 20-8.954 20-20S31.046 0 20 0Zm9.27 13.602c-.3 3.162-1.603 10.837-2.266 14.379-.28 1.498-.832 2-1.367 2.05-1.16.107-2.043-.767-3.168-1.505-1.76-1.154-2.755-1.872-4.463-2.998-1.975-1.301-.695-2.016.43-3.185.295-.306 5.412-4.961 5.511-5.383.013-.053.025-.25-.093-.354-.117-.103-.29-.068-.414-.04-.176.04-2.988 1.899-8.436 5.576-.798.548-1.521.815-2.169.801-.714-.015-2.088-.404-3.109-.736-1.252-.407-2.248-.622-2.161-1.314.045-.36.541-.728 1.488-1.104 5.83-2.54 9.718-4.215 11.663-5.025 5.555-2.31 6.709-2.711 7.461-2.724.166-.003.535.038.775.232.16.139.261.332.285.542.04.26.052.525.033.788Z" fill="#27A7E9"></path></g><defs><clipPath id="logo-telegram_0"><rect width="40" height="40" rx="20" fill="#fff"></rect></clipPath></defs></svg><svg fill="none" id="logo-wa" viewBox="0 0 40 40"><circle cx="20" cy="20" r="20" fill="#37BC4A"></circle><g clip-path="url(#logo-wa_0)"><path d="M27.705 12.197A10.82 10.82 0 0 0 19.995 9c-6.01 0-10.902 4.891-10.902 10.902 0 1.92.501 3.796 1.454 5.45L9 31l5.78-1.517a10.869 10.869 0 0 0 5.21 1.325h.005c6.006 0 11.005-4.89 11.005-10.901 0-2.912-1.238-5.648-3.295-7.71Zm-7.71 16.775a9.045 9.045 0 0 1-4.616-1.262l-.329-.197-3.428.899.914-3.344-.216-.344a9.032 9.032 0 0 1-1.385-4.822c0-4.994 4.066-9.06 9.065-9.06 2.421 0 4.695.942 6.404 2.656 1.709 1.714 2.76 3.988 2.755 6.409 0 4.999-4.17 9.065-9.164 9.065Zm4.97-6.787c-.27-.137-1.611-.795-1.861-.884-.25-.093-.433-.137-.614.138-.182.275-.702.884-.865 1.07-.157.182-.319.207-.589.07-1.6-.801-2.652-1.43-3.707-3.242-.28-.481.28-.447.8-1.488.088-.182.044-.339-.024-.476-.07-.138-.614-1.478-.84-2.024-.221-.53-.447-.456-.614-.466-.157-.01-.339-.01-.52-.01-.182 0-.477.069-.727.339-.25.275-.953.933-.953 2.274 0 1.34.977 2.637 1.11 2.818.137.182 1.92 2.932 4.655 4.116 1.729.746 2.406.81 3.27.682.526-.078 1.611-.658 1.837-1.296.226-.639.226-1.184.157-1.297-.064-.122-.245-.191-.515-.324Z" fill="#fff"></path></g><defs><clipPath id="logo-wa_0"><path fill="#fff" transform="translate(9 9)" d="M0 0h22v22H0z"></path></clipPath></defs></svg><svg fill="none" id="success-icon" viewBox="0 0 60 60"><circle cx="30" cy="30" r="29.5" fill="#fff" stroke="#78BE21"></circle><path d="M41.841 19.924a1.833 1.833 0 0 1 2.617 0c.714.723.723 1.89.026 2.625L29.701 40.024a1.833 1.833 0 0 1-2.662.052l-8.997-9.116a1.892 1.892 0 0 1 0-2.652 1.833 1.833 0 0 1 2.617 0l7.632 7.734L41.792 19.98a.623.623 0 0 1 .05-.056Z" fill="#78BE21"></path></svg></svg>