<svg width="32" height="28" fill="none" xmlns="http://www.w3.org/2000/svg"><g clip-path="url(#a)"><path d="M22.222 5.25v.038a11.949 11.949 0 0 0-.889-.038h-7.11c-.917 0-1.806.115-2.656.328a6.42 6.42 0 0 1-.011-.328c0-2.898 2.388-5.25 5.333-5.25 2.944 0 5.333 2.352 5.333 5.25ZM21.333 7c.195 0 .39.005.578.016.233.017.467.039.7.072a5.373 5.373 0 0 1 4.056-1.838h.639c.577 0 1 .536.86 1.088L27.4 9.357a8.827 8.827 0 0 1 2.083 2.893h.74c.983 0 1.777.782 1.777 1.75v5.25c0 .968-.794 1.75-1.778 1.75h-1.778a8.915 8.915 0 0 1-1.777 1.75v3.5c0 .968-.795 1.75-1.778 1.75H23.11c-.983 0-1.778-.782-1.778-1.75V24.5h-7.11v1.75c0 .968-.795 1.75-1.779 1.75h-1.777c-.984 0-1.778-.782-1.778-1.75v-3.5c-1.939-1.433-3.261-3.626-3.511-6.125h-1.6C1.688 16.625 0 14.963 0 12.906c0-2.056 1.689-3.719 3.778-3.719H4A1.32 1.32 0 0 1 5.333 10.5 1.32 1.32 0 0 1 4 11.813h-.222c-.611 0-1.111.492-1.111 1.093 0 .602.5 1.094 1.11 1.094h1.734c.672-3.27 3.206-5.879 6.461-6.716A8.958 8.958 0 0 1 14.222 7h7.111Zm3.556 7.438c0-.349-.14-.682-.39-.929a1.344 1.344 0 0 0-1.886 0 1.303 1.303 0 0 0 0 1.856 1.344 1.344 0 0 0 1.885 0c.25-.246.39-.58.39-.928Z" fill="#fff"/></g><defs><clipPath id="a"><path fill="#fff" d="M0 0h32v28H0z"/></clipPath></defs></svg>