<svg width="32" height="32" fill="none" xmlns="http://www.w3.org/2000/svg"><g clip-path="url(#a)"><path d="M16 28c8.837 0 16-5.819 16-13S24.837 2 16 2 0 7.819 0 15c0 2.819 1.106 5.425 2.981 7.556-.118 1.531-.712 2.894-1.337 3.931a11.274 11.274 0 0 1-1.256 1.707c-.038.037-.063.069-.082.087l-.018.019a.99.99 0 0 0-.213 1.087 1 1 0 0 0 .925.62c1.794 0 3.6-.557 5.1-1.207 1.431-.625 2.65-1.369 3.394-1.913A19.135 19.135 0 0 0 16 28.008V28ZM8 13a2 2 0 1 1 0 4 2 2 0 0 1 0-4Zm8 0a2 2 0 1 1 0 4 2 2 0 0 1 0-4Zm6 2a2 2 0 1 1 4 0 2 2 0 0 1-4 0Z" fill="#fff"/></g><defs><clipPath id="a"><path fill="#fff" d="M0 0h32v32H0z"/></clipPath></defs></svg>