<svg width="32" height="32" fill="none" xmlns="http://www.w3.org/2000/svg"><g clip-path="url(#a)" fill="#fff"><path d="M14.414 2a2 2 0 0 0-2.828 0L.292 13.292a1.001 1.001 0 0 0 1.416 1.416L2 14.414V25a3 3 0 0 0 3 3h1.1a5.02 5.02 0 0 1-.1-1v-8.17a3 3 0 0 1-1.12-4.95L15.586 3.172 14.414 2Z"/><path d="M17.586 4a2 2 0 0 1 2.828 0L24 7.586V5a1 1 0 0 1 1-1h2a1 1 0 0 1 1 1v6.586l3.708 3.706a1.001 1.001 0 1 1-1.416 1.416L30 16.414V27a3 3 0 0 1-3 3H11a3 3 0 0 1-3-3V16.414l-.292.294a1 1 0 1 1-1.416-1.416L17.586 4Z"/></g><defs><clipPath id="a"><path fill="#fff" d="M0 0h32v32H0z"/></clipPath></defs></svg>