<svg width="44" height="40" fill="none" xmlns="http://www.w3.org/2000/svg"><path d="m43.481 19.215-7.088-6.491V3.156c0-.746-.584-1.349-1.305-1.349h-5.223c-.72 0-1.304.603-1.304 1.35v2.396L22.866.34a1.274 1.274 0 0 0-1.733 0L.518 19.215a1.379 1.379 0 0 0-.354 1.487c.193.525.678.872 1.22.872H7.91V38.54c0 .609.394 1.102.927 1.27.104.063.219.11.348.11H22c.389 0 .705-.328.705-.729 0-.4-.316-.728-.705-.728H10.522v-1.457h5.835c.39 0 .705-.328.705-.729 0-.4-.316-.728-.705-.728h-5.835v-1.457h5.835c.39 0 .705-.328.705-.729 0-.4-.316-.728-.705-.728h-5.835v-1.457H22c.389 0 .705-.328.705-.729 0-.4-.316-.728-.705-.728H10.522v-1.457h5.835c.39 0 .705-.328.705-.728 0-.401-.316-.729-.705-.729h-5.835V25.35h5.835c.39 0 .705-.328.705-.728 0-.401-.316-.729-.705-.729h-5.835v-1.457H22c.389 0 .705-.328.705-.728 0-.401-.316-.729-.705-.729H10.522v-.752c0-.744-.584-1.347-1.306-1.347H4.825L22 3.149l6.998 6.408a1.27 1.27 0 0 0 1.4.221c.47-.217.771-.698.771-1.23V4.504h2.613v8.828c0 .386.158.753.44 1.008l4.953 4.535h-4.39c-.724 0-1.307.604-1.307 1.348V38.54c0 .745.583 1.349 1.306 1.349.721 0 1.305-.603 1.305-1.35V21.573h6.526c.542 0 1.029-.345 1.22-.871a1.38 1.38 0 0 0-.354-1.486Z" fill="#78BE21"/></svg>