<svg width="20" height="20" fill="none" xmlns="http://www.w3.org/2000/svg"><g clip-path="url(#a)" fill="#fff"><path d="M8.556 15.744a.472.472 0 0 1-.282.102h-1.97a.482.482 0 0 1-.482-.482v-1.97c0-.265.216-.481.483-.481h1.663a5.59 5.59 0 0 1 .217-1.285h-1.88a.482.482 0 0 1-.483-.482v-1.97c0-.266.216-.482.483-.482h1.969c.266 0 .48.216.48.483v1.175a5.54 5.54 0 0 1 4.774-2.702c.376 0 .746.038 1.105.11L9.712 3.515a.482.482 0 0 0-.63 0L2.729 8.996a.482.482 0 0 0-.168.366v7.927c0 .266.216.482.483.482h7.263a5.594 5.594 0 0 1-.72-.603 5.595 5.595 0 0 1-1.03-1.424Z"/><path d="m19.719 18.053-1.319-1.32a.961.961 0 0 0-.929-.246l-.36-.36a4.618 4.618 0 0 0-.321-6.162 4.582 4.582 0 0 0-3.261-1.35c-1.232 0-2.391.48-3.262 1.35a4.58 4.58 0 0 0-1.351 3.26c0 1.233.48 2.39 1.351 3.261a4.579 4.579 0 0 0 3.262 1.352 4.574 4.574 0 0 0 2.901-1.029l.36.36a.96.96 0 0 0 .246.927l1.318 1.32c.188.188.435.282.682.282a.964.964 0 0 0 .682-1.645Zm-8.77-2.248a3.622 3.622 0 0 1-1.069-2.58c0-.973.38-1.889 1.069-2.578a3.626 3.626 0 0 1 2.58-1.068c.974 0 1.89.38 2.58 1.068a3.652 3.652 0 0 1 0 5.157v.001h-.001a3.626 3.626 0 0 1-2.58 1.07c-.974 0-1.89-.38-2.58-1.07Z"/><path d="M17.203 9.249a.96.96 0 0 0 1.358-.102.964.964 0 0 0-.102-1.36L10.025.535a.962.962 0 0 0-1.256 0L.336 7.787a.964.964 0 1 0 1.256 1.462l7.805-6.712 7.806 6.712Z"/></g><defs><clipPath id="a"><path fill="#fff" d="M0 0h20v20H0z"/></clipPath></defs></svg>