<svg width="15" height="20" fill="none" xmlns="http://www.w3.org/2000/svg"><g clip-path="url(#a)"><path d="M7.5 0a3.746 3.746 0 0 0-3.535 2.5H2.5A2.502 2.502 0 0 0 0 5v12.5C0 18.879 1.121 20 2.5 20h10c1.379 0 2.5-1.121 2.5-2.5V5c0-1.379-1.121-2.5-2.5-2.5h-1.465A3.746 3.746 0 0 0 7.5 0Zm0 2.5a1.25 1.25 0 1 1 0 2.5 1.25 1.25 0 0 1 0-2.5Zm-4.688 8.125a.938.938 0 1 1 1.876 0 .938.938 0 0 1-1.875 0ZM6.875 10h5c.344 0 .625.281.625.625a.627.627 0 0 1-.625.625h-5a.627.627 0 0 1-.625-.625c0-.344.281-.625.625-.625Zm-4.063 4.375a.937.937 0 1 1 1.875 0 .937.937 0 0 1-1.875 0Zm3.438 0c0-.344.281-.625.625-.625h5c.344 0 .625.281.625.625a.627.627 0 0 1-.625.625h-5a.627.627 0 0 1-.625-.625Z" fill="#fff"/></g><defs><clipPath id="a"><path fill="#fff" d="M0 0h15v20H0z"/></clipPath></defs></svg>